name symmetric_stride_kinematics_HTD_Plus_2.mot
datacolumns 38
datarows 6
range 1.04420799 1.04903245
endheader
                time	/jointset/ground_pelvis/pelvis_tilt/value	/jointset/ground_pelvis/pelvis_list/value	/jointset/ground_pelvis/pelvis_rotation/value	/jointset/ground_pelvis/pelvis_tx/value	/jointset/ground_pelvis/pelvis_ty/value	/jointset/ground_pelvis/pelvis_tz/value	/jointset/hip_r/hip_flexion_r/value	/jointset/hip_r/hip_adduction_r/value	/jointset/hip_r/hip_rotation_r/value	/jointset/knee_r/knee_angle_r/value	/jointset/ankle_r/ankle_angle_r/value	/jointset/subtalar_r/subtalar_angle_r/value	/jointset/mtp_r/mtp_angle_r/value	/jointset/hip_l/hip_flexion_l/value	/jointset/hip_l/hip_adduction_l/value	/jointset/hip_l/hip_rotation_l/value	/jointset/knee_l/knee_angle_l/value	/jointset/ankle_l/ankle_angle_l/value	/jointset/subtalar_l/subtalar_angle_l/value	/jointset/mtp_l/mtp_angle_l/value	/jointset/back/lumbar_extension/value	/jointset/back/lumbar_bending/value	/jointset/back/lumbar_rotation/value	/jointset/acromial_r/arm_flex_r/value	/jointset/acromial_r/arm_add_r/value	/jointset/acromial_r/arm_rot_r/value	/jointset/elbow_r/elbow_flex_r/value	/jointset/radioulnar_r/pro_sup_r/value	/jointset/radius_hand_r/wrist_flex_r/value	/jointset/radius_hand_r/wrist_dev_r/value	/jointset/acromial_l/arm_flex_l/value	/jointset/acromial_l/arm_add_l/value	/jointset/acromial_l/arm_rot_l/value	/jointset/elbow_l/elbow_flex_l/value	/jointset/radioulnar_l/pro_sup_l/value	/jointset/radius_hand_l/wrist_flex_l/value	/jointset/radius_hand_l/wrist_dev_l/value	
          1.04420799	         -6.75438305	          5.94192300	          1.66667503	         12.35000011	          0.99683358	          0.30213563	         19.92885076	        -12.26602427	          3.44195010	       -118.53295335	        -10.01180573	        -17.62532126	         -3.54915524	         36.14558562	          4.74519423	         -0.83418643	        -19.38245851	        -26.66866882	        -18.12857343	          0.31915572	        -18.67003714	         -9.54466410	          5.47484550	         -0.45028247	        -24.53142948	        -14.99352047	         73.51448878	         54.95156273	          0.38633731	          5.09858191	         -6.09382435	        -26.17712237	        -14.76754570	         90.26646814	         73.54219601	        -23.37888158	          5.25382492	
          1.04485561	         -6.86037909	          5.90363744	          1.97633826	         12.35766752	          0.99641100	          0.30236851	         20.37034852	        -12.28288575	          3.29623278	       -118.92042724	         -9.83499004	        -17.67417526	         -3.33972370	         35.85041628	          4.85867605	         -0.89589380	        -19.14283840	        -26.11796316	        -17.62723507	          0.66809731	        -18.55469604	         -9.47535265	          5.27050853	         -0.95996185	        -24.37871712	        -14.99920356	         73.22949325	         54.95413046	          0.30732331	          5.11140168	         -5.14273414	        -26.16450891	        -14.71631438	         90.45078950	         73.81785793	        -23.29317226	          5.23887267	
          1.04690184	         -7.20130604	          5.76463099	          2.97668229	         12.38190363	          0.99498607	          0.30310998	         21.78019625	        -12.34576858	          2.82265970	       -120.13088588	         -9.28259081	        -17.82575826	         -2.86452489	         34.91555307	          5.20472262	         -1.02523219	        -18.42134583	        -24.25074425	        -16.14653131	          1.66715532	        -18.17506751	         -9.24296536	          4.59411351	         -2.55975096	        -23.87597732	        -14.99999875	         72.40230708	         54.86948816	          0.04307802	          5.17564639	         -2.11856593	        -26.12376654	        -14.51867777	         90.97402612	         74.86307642	        -22.99584173	          5.22655724	
          1.04838482	         -7.45285699	          5.64656574	          3.72075026	         12.39947948	          0.99386909	          0.30365057	         22.81528690	        -12.40119687	          2.46859233	       -120.99448963	         -8.88983824	        -17.93433630	         -2.69633238	         34.23522081	          5.44155649	         -1.04746820	        -17.93646175	        -22.80682745	        -15.18586328	          2.32863955	        -17.88630660	         -9.06284476	          4.07533362	         -3.71221870	        -23.49318339	        -14.99313911	         71.87241422	         54.77489097	         -0.15150168	          5.24656004	          0.08499892	        -26.09479383	        -14.34267499	         91.30619929	         75.70751909	        -22.76860338	          5.23163284	
          1.04838482	         -7.45285699	          5.64656574	          3.72075026	         12.39947948	          0.99386909	          0.30365057	         22.81528690	        -12.40119687	          2.46859233	       -120.99448963	         -8.88983824	        -17.93433630	         -2.69633238	         34.23522081	          5.44155649	         -1.04746820	        -17.93646175	        -22.80682745	        -15.18586328	          2.32863955	        -17.88630660	         -9.06284476	          4.07533362	         -3.71221870	        -23.49318339	        -14.99313911	         71.87241422	         54.77489097	         -0.15150168	          5.24656004	          0.08499892	        -26.09479383	        -14.34267499	         91.30619929	         75.70751909	        -22.76860338	          5.23163284	
          1.04903245	         -7.56354654	          5.59040034	          4.05033713	         12.40715807	          0.99335945	          0.30388701	         23.27052255	        -12.42821795	          2.31141696	       -121.36784389	         -8.72049934	        -17.98179896	         -2.66991136	         33.93722726	          5.54075554	         -1.03621989	        -17.73614591	        -22.15829559	        -14.79813487	          2.58247673	        -17.75684780	         -8.98132806	          3.84130782	         -4.21435631	        -23.32136802	        -14.99041128	         71.65936532	         54.74516900	         -0.23568610	          5.28474129	          1.04871042	        -26.08251001	        -14.25804731	         91.44095502	         76.08359019	        -22.66829190	          5.23128890	
